# xmcd CD database file
#
# Track frame offsets:
#	150
#	16775
#	34685
#	55115
#	71147
#	91225
#	111502
#	131755
#	150627
#	174487
#
# Disc length: 2608 seconds
#
# Revision: 0
# Processed by: cddbd v1.5PL3 Copyright (c) Steve Scherf et al.
# Submitted via: CDex 1.50
#
DISCID=7f0a2e0a
DTITLE=サイコ - サイコ
DYEAR=2000
DGENRE=JPop
TTITLE0=インコ
TTITLE1=DO YOU WANNA DANCE
TTITLE2=有罪
TTITLE3=きかせて
TTITLE4=天国
TTITLE5=終わらない自由
TTITLE6=アイスクリームマン
TTITLE7=ケミカルシスターズ
TTITLE8=やわらかに　ゆるやかに
TTITLE9=コンクリート
EXTD=YEAR: 2000
EXTT0=
EXTT1=
EXTT2=
EXTT3=
EXTT4=
EXTT5=
EXTT6=
EXTT7=
EXTT8=
EXTT9=
PLAYORDER=
